<svg width="334" height="82" viewBox="0 0 334 82" fill="none" xmlns="http://www.w3.org/2000/svg">
<g clip-path="url(#clip0_2003_2)">
<path d="M186 0H326C330.418 0 334 3.58172 334 8V74C334 78.4183 330.418 82 326 82H186V0Z" fill="#654BFF"/>
<path d="M231.302 18.2H238.022L220.486 35.992L238.982 63H233.478L217.222 39.384L209.414 47.576V63H204.294V18.2H209.414V40.92L231.302 18.2ZM245.869 18.2H274.157V22.872H262.573V58.328H274.157V63H245.869V58.328H257.453V22.872H245.869V18.2ZM281.684 18.2H315.092V22.808H296.02L301.012 25.88V63H295.828V26.52L293.396 22.808H281.684V18.2Z" fill="white"/>
<path d="M26.426 18.2H44.474L47.866 23.448L44.602 26.648L41.978 22.808H28.346L26.426 24.856V33.112L28.986 36.824H45.05L49.594 43.608V58.328L45.114 63H24.122L21.306 59.032L24.506 55.64L26.49 58.392H42.938L44.474 57.048V44.184L42.554 41.432H26.426L21.306 33.816V23.512L26.426 18.2ZM59.681 18.2H87.969V22.872H76.385V58.328H87.969V63H59.681V58.328H71.265V22.872H59.681V18.2ZM98.696 18.2H118.408L127.048 31.064V57.688L121.928 63H98.696V18.2ZM103.816 22.808V58.392H119.816L121.864 56.28V31.704L115.912 22.808H103.816ZM141.551 18.2H164.719V22.808H143.471L141.487 24.92V36.76H156.335V41.432H141.487V54.68L143.983 58.392H164.719V63H141.487L136.367 55.32V23.512L141.551 18.2Z" fill="white"/>
</g>
<defs>
<clipPath id="clip0_2003_2">
<rect width="334" height="82" fill="white"/>
</clipPath>
</defs>
</svg>
